# xmcd CD database file
#
# Track frame offsets:
#	150
#	22731
#	48303
#	72425
#	96738
#	121095
#	143010
#	170725
#	196514
#	218498
#	256446
#
# Disc length: 3671 seconds
#
# Revision: 3
# Processed by: cddbd v1.5.1PL0 Copyright (c) Steve Scherf et al.
# Submitted via: CDex 1.51
#
DISCID=950e550b
DTITLE=Nakajima Miyuki - LOVE OR NOTHING
DYEAR=1994
DGENRE=Vocal
TTITLE0=Sorato Kimitono Aidani
TTITLE1=Mou Sanbashini Akariwa Tomoranai
TTITLE2=Barairono Mirai
TTITLE3=Himawari SUNWARD
TTITLE4=Antena no Machi
TTITLE5=Tenbinbakari
TTITLE6=Ryusei
TTITLE7=Yumedattandane
TTITLE8=Kazeni Naranaika
TTITLE9=YOU NEVER NEED ME
TTITLE10=Nemuranaide
EXTD=YEAR: 1994
EXTT0=
EXTT1=
EXTT2=
EXTT3=
EXTT4=
EXTT5=
EXTT6=
EXTT7=
EXTT8=
EXTT9=
EXTT10=
PLAYORDER=
